<svg id="visual" viewBox="0 0 450 900" width="450" height="900" xmlns="http://www.w3.org/2000/svg" xmlns:xlink="http://www.w3.org/1999/xlink" version="1.1"><rect width="450" height="900" fill="#FFFFFF"></rect><g><g transform="translate(40 116)"><path d="M0 -124.8L108.1 -62.4L108.1 62.4L0 124.8L-108.1 62.4L-108.1 -62.4Z" fill="none" stroke="#f9f9f9" stroke-width="6"></path></g><g transform="translate(316 665)"><path d="M0 -103L89.2 -51.5L89.2 51.5L0 103L-89.2 51.5L-89.2 -51.5Z" fill="none" stroke="#f9f9f9" stroke-width="6"></path></g><g transform="translate(7 703)"><path d="M0 -50L43.3 -25L43.3 25L0 50L-43.3 25L-43.3 -25Z" fill="none" stroke="#f9f9f9" stroke-width="6"></path></g><g transform="translate(214 383)"><path d="M0 -70L60.6 -35L60.6 35L0 70L-60.6 35L-60.6 -35Z" fill="none" stroke="#f9f9f9" stroke-width="6"></path></g><g transform="translate(336 52)"><path d="M0 -37L32 -18.5L32 18.5L0 37L-32 18.5L-32 -18.5Z" stroke="#f9f9f9" fill="none" stroke-width="6"></path></g><g transform="translate(422 894)"><path d="M0 -43L37.2 -21.5L37.2 21.5L0 43L-37.2 21.5L-37.2 -21.5Z" stroke="#f9f9f9" fill="none" stroke-width="6"></path></g></g></svg>