<svg id="visual" viewBox="0 0 960 540" width="960" height="540" xmlns="http://www.w3.org/2000/svg" xmlns:xlink="http://www.w3.org/1999/xlink" version="1.1"><rect x="0" y="0" width="960" height="540" fill="#002233"></rect><path d="M0 390L13.3 390C26.7 390 53.3 390 80 383.8C106.7 377.7 133.3 365.3 160 367.2C186.7 369 213.3 385 240 385.7C266.7 386.3 293.3 371.7 320 365C346.7 358.3 373.3 359.7 400 360.7C426.7 361.7 453.3 362.3 480 365C506.7 367.7 533.3 372.3 560 378.7C586.7 385 613.3 393 640 390.8C666.7 388.7 693.3 376.3 720 371.8C746.7 367.3 773.3 370.7 800 367.7C826.7 364.7 853.3 355.3 880 354C906.7 352.7 933.3 359.3 946.7 362.7L960 366L960 541L946.7 541C933.3 541 906.7 541 880 541C853.3 541 826.7 541 800 541C773.3 541 746.7 541 720 541C693.3 541 666.7 541 640 541C613.3 541 586.7 541 560 541C533.3 541 506.7 541 480 541C453.3 541 426.7 541 400 541C373.3 541 346.7 541 320 541C293.3 541 266.7 541 240 541C213.3 541 186.7 541 160 541C133.3 541 106.7 541 80 541C53.3 541 26.7 541 13.3 541L0 541Z" fill="#4682b4" stroke-linecap="round" stroke-linejoin="miter"></path></svg>