<svg id="visual" viewBox="0 0 900 600" width="900" height="600" xmlns="http://www.w3.org/2000/svg" xmlns:xlink="http://www.w3.org/1999/xlink" version="1.1"><rect width="900" height="600" fill="#FFFFFF"></rect><g><g transform="translate(602 255)"><path d="M0 -144.1L124.8 -72L124.8 72L0 144.1L-124.8 72L-124.8 -72Z" fill="none" stroke="#f9f9f9" stroke-width="6"></path></g><g transform="translate(309 461)"><path d="M0 -54L46.8 -27L46.8 27L0 54L-46.8 27L-46.8 -27Z" fill="none" stroke="#f9f9f9" stroke-width="6"></path></g><g transform="translate(290 168)"><path d="M0 -95L82.3 -47.5L82.3 47.5L0 95L-82.3 47.5L-82.3 -47.5Z" fill="none" stroke="#f9f9f9" stroke-width="6"></path></g><g transform="translate(790 503)"><path d="M0 -103L89.2 -51.5L89.2 51.5L0 103L-89.2 51.5L-89.2 -51.5Z" fill="none" stroke="#f9f9f9" stroke-width="6"></path></g><g transform="translate(865 71)"><path d="M0 -90L77.9 -45L77.9 45L0 90L-77.9 45L-77.9 -45Z" stroke="#f9f9f9" fill="none" stroke-width="6"></path></g><g transform="translate(34 1)"><path d="M0 -54L46.8 -27L46.8 27L0 54L-46.8 27L-46.8 -27Z" stroke="#f9f9f9" fill="none" stroke-width="6"></path></g><g transform="translate(18 331)"><path d="M0 -108L93.5 -54L93.5 54L0 108L-93.5 54L-93.5 -54Z" stroke="#f9f9f9" fill="none" stroke-width="6"></path></g></g></svg>